<svg xmlns="http://www.w3.org/2000/svg" viewBox="0 0 64 64" role="img" aria-label="Ticketing favicon">
  <defs>
    <linearGradient id="g" x1="0" y1="0" x2="1" y2="1">
      <stop offset="0" stop-color="#2fd466"/>
      <stop offset="1" stop-color="#0f9f3a"/>
    </linearGradient>
  </defs>
  <rect x="2" y="20" width="22" height="6" rx="3" fill="url(#g)"/>
  <rect x="2" y="30" width="28" height="6" rx="3" fill="url(#g)"/>
  <rect x="2" y="40" width="22" height="6" rx="3" fill="url(#g)"/>
  <path fill="#087a2f" d="M26 10h23c1.7 0 3 1.3 3 3v9.5a5.5 5.5 0 0 1 0 11V43c0 1.7-1.3 3-3 3H26a3 3 0 0 1-3-3V13c0-1.7 1.3-3 3-3z"/>
  <circle cx="40" cy="28" r="2.5" fill="#d6ffe1"/>
</svg>
